<svg width="37" height="22" viewBox="0 0 37 22" fill="none" xmlns="http://www.w3.org/2000/svg">
<rect x="0.233398" width="36.6667" height="22" rx="4" fill="#0072CE"/>
<path fill-rule="evenodd" clip-rule="evenodd" d="M31.1826 12.7113H29.8871C29.7578 12.7113 29.6718 12.7162 29.5995 12.7649C29.5245 12.8129 29.4956 12.8842 29.4956 12.9783C29.4956 13.0901 29.5589 13.1662 29.651 13.1991C29.726 13.2252 29.8066 13.2328 29.925 13.2328L30.3102 13.243C30.6989 13.2526 30.9584 13.3192 31.1166 13.4817C31.1454 13.5043 31.1627 13.5297 31.1826 13.5551V12.7113ZM31.1827 14.6663C31.0101 14.918 30.6736 15.0456 30.2182 15.0456H28.8455V14.4098H30.2126C30.3482 14.4098 30.4431 14.392 30.5002 14.3363C30.5498 14.2905 30.5843 14.2238 30.5843 14.1429C30.5843 14.0565 30.5498 13.9879 30.4975 13.9468C30.4459 13.9016 30.3708 13.881 30.247 13.881C29.5796 13.8584 28.747 13.9016 28.747 12.9631C28.747 12.533 29.0209 12.0803 29.7668 12.0803H31.1826V11.4902H29.8672C29.4702 11.4902 29.1818 11.585 28.9776 11.7324V11.4902H27.0319C26.7207 11.4902 26.3555 11.5671 26.1827 11.7324V11.4902H22.7082V11.7324C22.4316 11.5335 21.9651 11.4902 21.7497 11.4902H19.4578V11.7324C19.2391 11.5212 18.7526 11.4902 18.4561 11.4902H15.8911L15.3041 12.1235L14.7544 11.4902H10.9229V15.6281H14.6823L15.2871 14.9847L15.8568 15.6281L18.1742 15.6301V14.6567H18.402C18.7094 14.6615 19.0721 14.6491 19.392 14.5112V15.628H21.3034V14.5495H21.3956C21.5133 14.5495 21.5248 14.5544 21.5248 14.6716V15.6279H27.3313C27.6999 15.6279 28.0852 15.5338 28.2986 15.3631V15.6279H30.1404C30.5236 15.6279 30.8979 15.5743 31.1827 15.4371V14.6663ZM28.3474 13.4816C28.4858 13.6244 28.5599 13.8047 28.5599 14.1099C28.5599 14.7478 28.1602 15.0456 27.4433 15.0456H26.0589V14.4097H27.4378C27.5726 14.4097 27.6682 14.3919 27.7281 14.3363C27.777 14.2904 27.8121 14.2238 27.8121 14.1429C27.8121 14.0565 27.7741 13.9879 27.7253 13.9468C27.671 13.9015 27.596 13.881 27.4722 13.881C26.8075 13.8583 25.975 13.9015 25.975 12.9631C25.975 12.533 26.2461 12.0802 26.9913 12.0802H28.4162V12.7114H27.1124C26.9831 12.7114 26.8991 12.7162 26.8276 12.765C26.7497 12.813 26.7208 12.8842 26.7208 12.9783C26.7208 13.0902 26.787 13.1663 26.8764 13.1992C26.9514 13.2252 27.0319 13.2328 27.153 13.2328L27.5356 13.2431C27.9215 13.2525 28.1864 13.319 28.3474 13.4816ZM21.9334 13.2985C21.8384 13.3547 21.7208 13.3596 21.5825 13.3596H20.719V12.6935H21.5942C21.7208 12.6935 21.8474 12.6962 21.9334 12.7471C22.0255 12.7951 22.0806 12.8869 22.0806 13.0138C22.0806 13.1407 22.0255 13.2429 21.9334 13.2985ZM22.3627 13.6676C22.5209 13.7258 22.6502 13.8302 22.7109 13.9166C22.8112 14.0613 22.8258 14.1965 22.8286 14.4578V15.0457H22.115V14.6747C22.115 14.4963 22.1322 14.2321 22.0001 14.0942C21.8963 13.988 21.738 13.9626 21.4786 13.9626H20.719V15.0457H20.0048V12.0802H21.6458C22.0057 12.0802 22.2678 12.0961 22.5011 12.2202C22.7254 12.3553 22.8665 12.5404 22.8665 12.8787C22.8664 13.352 22.5498 13.5936 22.3627 13.6676ZM23.2607 12.0802H25.6331V12.6935H23.9686V13.2326H25.5924V13.8377H23.9686V14.4277L25.6331 14.4304V15.0457H23.2607V12.0802ZM18.465 13.4487H17.5464V12.6935H18.4732C18.7298 12.6935 18.908 12.7978 18.908 13.0571C18.908 13.3136 18.7381 13.4487 18.465 13.4487ZM16.8385 14.7759L15.7472 13.568L16.8385 12.3984V14.7759ZM14.0203 14.4277H12.2727V13.8377H13.8332V13.2327H12.2727V12.6935H14.0547L14.8322 13.5577L14.0203 14.4277ZM19.6711 13.0572C19.6711 13.881 19.0546 14.051 18.4333 14.051H17.5464V15.0457H16.1649L15.2897 14.064L14.3801 15.0457H11.5646V12.0802H14.4234L15.2979 13.0523L16.202 12.0802H18.4732C19.0373 12.0802 19.6711 12.2359 19.6711 13.0572Z" fill="white"/>
<path fill-rule="evenodd" clip-rule="evenodd" d="M8.17327 8.66193L7.68677 7.48001L7.20305 8.66193H8.17327ZM18.8909 8.19137C18.7932 8.25048 18.6777 8.25244 18.5393 8.25244H17.6758V7.59392H18.551C18.6749 7.59392 18.8042 7.59947 18.8881 7.6474C18.9803 7.69059 19.0374 7.78252 19.0374 7.9095C19.0374 8.03908 18.9831 8.14335 18.8909 8.19137ZM25.051 8.66193L24.5591 7.48001L24.0699 8.66193H25.051ZM13.5682 9.94134H12.8395L12.8368 7.61936L11.8062 9.94134H11.1821L10.1487 7.6173V9.94134H8.70303L8.42991 9.28005H6.94996L6.67406 9.94134H5.90207L7.17491 6.97658H8.23097L9.43986 9.7836V6.97658H10.6L11.5302 8.98781L12.3847 6.97658H13.5681V9.94134H13.5682ZM16.4724 9.94134H14.0979V6.97658H16.4724V7.59396H14.8088V8.12836H16.4325V8.73609H14.8088V9.32816H16.4724V9.94134ZM19.8203 7.77504C19.8203 8.24774 19.5039 8.49196 19.3195 8.56529C19.475 8.62431 19.6078 8.72857 19.6711 8.81496C19.7714 8.96242 19.7888 9.09414 19.7888 9.35892V9.94134H19.0718L19.0691 9.56746C19.0691 9.38906 19.0863 9.1325 18.9569 8.98987C18.8531 8.8856 18.6948 8.86298 18.4389 8.86298H17.6758V9.94134H16.9651V6.97658H18.6C18.9632 6.97658 19.2309 6.98614 19.4607 7.11858C19.6855 7.25102 19.8203 7.44435 19.8203 7.77504ZM20.9579 9.94134H20.2326V6.97658H20.9579V9.94134ZM29.3719 9.94134H28.3646L27.0173 7.71611V9.94134H25.5698L25.2931 9.28005H23.8166L23.5482 9.94134H22.7165C22.371 9.94134 21.9336 9.86515 21.6858 9.61343C21.436 9.3617 21.3061 9.02072 21.3061 8.48158C21.3061 8.04189 21.3837 7.63992 21.6892 7.32229C21.919 7.08567 22.2789 6.97658 22.7687 6.97658H23.4568V7.61185H22.7832C22.5238 7.61185 22.3773 7.6503 22.2362 7.78747C22.115 7.91231 22.0319 8.1483 22.0319 8.45905C22.0319 8.77668 22.0952 9.0057 22.2273 9.15531C22.3367 9.27263 22.5356 9.30822 22.7227 9.30822H23.0419L24.0437 6.97667H25.1087L26.3122 9.78092V6.97667H27.3944L28.6438 9.04147V6.97667H29.3719V9.94134ZM5.89364 10.5236H7.1081L7.38193 9.86512H7.99499L8.26811 10.5236H10.6576V10.0202L10.8709 10.5258H12.1114L12.3247 10.0127V10.5236H18.2631L18.2604 9.44268H18.3753C18.4557 9.44546 18.4792 9.45288 18.4792 9.58531V10.5236H21.5506V10.272C21.7983 10.4044 22.1837 10.5236 22.6907 10.5236H23.9828L24.2594 9.86512H24.8724L25.1428 10.5236H27.6328V9.89812L28.0099 10.5236H30.0052V6.38867H28.0305V6.87702L27.754 6.38867H25.7277V6.87702L25.4738 6.38867H22.7368C22.2787 6.38867 21.8759 6.45243 21.5506 6.63012V6.38867H19.6618V6.63012C19.4548 6.44698 19.1727 6.38867 18.8591 6.38867H11.9587L11.4957 7.45666L11.0202 6.38867H8.84672V6.87702L8.60796 6.38867H6.75435L5.89355 8.35466V10.5236H5.89364Z" fill="white"/>
</svg>
