<svg width="38" height="22" viewBox="0 0 38 22" fill="none" xmlns="http://www.w3.org/2000/svg">
<rect x="1.16699" y="0.5" width="35.6667" height="21" rx="3.5" fill="white" stroke="#E6772F"/>
<path fill-rule="evenodd" clip-rule="evenodd" d="M9.50977 21.9995H33.3341C35.5433 21.9995 37.3341 20.2086 37.3341 17.9995V12.3555C37.3341 12.3555 27.5073 19.0178 9.50977 21.9995Z" fill="#E6772F"/>
<path fill-rule="evenodd" clip-rule="evenodd" d="M7.37268 10.9341C7.09742 11.1694 6.74701 11.2723 6.18666 11.2723H5.95414V8.46368H6.18666C6.74701 8.46368 7.08397 8.55967 7.37268 8.80674C7.67069 9.06206 7.84978 9.45592 7.84978 9.86331C7.84978 10.2727 7.67069 10.6806 7.37268 10.9341ZM6.36009 7.74414H5.08789V11.992H6.35234C7.02524 11.992 7.51095 11.8388 7.93668 11.5007C8.44239 11.1002 8.74248 10.4956 8.74248 9.86915C8.74248 8.61516 7.76346 7.74414 6.36009 7.74414Z" fill="#1A1919"/>
<path fill-rule="evenodd" clip-rule="evenodd" d="M9.14258 7.74414H10.0052V11.992H9.14258V7.74414Z" fill="#1A1919"/>
<path fill-rule="evenodd" clip-rule="evenodd" d="M12.1236 9.37265C11.6029 9.1899 11.4507 9.06818 11.4507 8.83859C11.4507 8.57173 11.7227 8.36936 12.0967 8.36936C12.356 8.36936 12.5695 8.46865 12.797 8.71127L13.2474 8.14587C12.8753 7.83249 12.4299 7.67383 11.9444 7.67383C11.1587 7.67383 10.56 8.19683 10.56 8.8884C10.56 9.47557 10.8383 9.77344 11.6507 10.0563C11.9902 10.1693 12.1627 10.2465 12.2501 10.2988C12.4232 10.4058 12.5094 10.5592 12.5094 10.7365C12.5094 11.082 12.2232 11.336 11.8365 11.336C11.4247 11.336 11.0915 11.1388 10.8921 10.7683L10.334 11.2856C10.733 11.845 11.2113 12.0951 11.8702 12.0951C12.7689 12.0951 13.4022 11.5193 13.4022 10.6992C13.4022 10.0235 13.1085 9.7172 12.1236 9.37265Z" fill="#1A1919"/>
<path fill-rule="evenodd" clip-rule="evenodd" d="M13.6738 9.86944C13.6738 11.1187 14.6985 12.0867 16.0176 12.0867C16.3896 12.0867 16.7084 12.0164 17.1011 11.8391V10.8628C16.7541 11.1965 16.4495 11.3281 16.0555 11.3281C15.1839 11.3281 14.5665 10.7246 14.5665 9.86351C14.5665 9.04988 15.2039 8.40532 16.0176 8.40532C16.4282 8.40532 16.7419 8.54453 17.1011 8.88314V7.90804C16.7217 7.72447 16.4104 7.64844 16.0354 7.64844C14.7239 7.64844 13.6738 8.6354 13.6738 9.86944Z" fill="#1A1919"/>
<path fill-rule="evenodd" clip-rule="evenodd" d="M24.1149 10.596L22.9312 7.74414H21.9873L23.8691 12.0992H24.3333L26.2517 7.74414H25.3153L24.1149 10.596Z" fill="#1A1919"/>
<path fill-rule="evenodd" clip-rule="evenodd" d="M26.6445 11.992H29.0995V11.2723H27.5106V10.1256H29.0392V9.40602H27.5106V8.46358H29.0995V7.74414H26.6445V11.992Z" fill="#1A1919"/>
<path fill-rule="evenodd" clip-rule="evenodd" d="M30.7902 9.69757H30.5388V8.41273H30.8043C31.3452 8.41273 31.6349 8.62995 31.6349 9.04377C31.6349 9.46897 31.3452 9.69757 30.7902 9.69757ZM32.5264 8.99748C32.5264 8.202 31.9562 7.74414 30.9567 7.74414H29.6709V11.992H30.5389V10.2841H30.6515L31.8475 11.992H32.9125L31.5159 10.2017C32.1686 10.074 32.5264 9.64748 32.5264 8.99748Z" fill="#1A1919"/>
<path fill-rule="evenodd" clip-rule="evenodd" d="M22.1095 9.88059C22.1095 11.1036 21.074 12.0948 19.7954 12.0948C18.5172 12.0948 17.4814 11.1036 17.4814 9.88059C17.4814 8.65744 18.5172 7.66602 19.7954 7.66602C21.074 7.66602 22.1095 8.65744 22.1095 9.88059Z" fill="#E6772F"/>
</svg>
