<svg width="38" height="22" viewBox="0 0 38 22" fill="none" xmlns="http://www.w3.org/2000/svg">
<rect x="0.800781" width="36.6667" height="22" rx="4" fill="#000066"/>
<path fill-rule="evenodd" clip-rule="evenodd" d="M21.3814 11.1771C21.3814 15.1291 18.1779 18.3324 14.226 18.3324C10.274 18.3324 7.07031 15.1291 7.07031 11.1771C7.07031 7.22515 10.274 4.02148 14.226 4.02148C18.1779 4.02148 21.3814 7.22515 21.3814 11.1771Z" fill="#CC0000"/>
<path fill-rule="evenodd" clip-rule="evenodd" d="M23.8328 4.02148C21.9835 4.02148 20.299 4.72292 19.0289 5.87362C18.7705 6.10815 18.5293 6.36145 18.3067 6.63114H19.7524C19.9498 6.87155 20.1318 7.12428 20.2979 7.389H17.7611C17.6093 7.63224 17.4714 7.88497 17.3488 8.14686H20.71C20.8249 8.39213 20.926 8.64475 21.013 8.90439H17.0457C16.9632 9.15113 16.8935 9.40397 16.8379 9.66179H21.2206C21.3256 10.1503 21.3814 10.6571 21.3814 11.1771C21.3814 11.9714 21.252 12.7361 21.013 13.4502H17.0457C17.1328 13.7096 17.2339 13.9626 17.3486 14.2082H20.71C20.5872 14.4694 20.4499 14.7223 20.2972 14.9659H17.7611C17.9265 15.2298 18.1088 15.4829 18.3067 15.723H19.752C19.5298 15.9929 19.2883 16.2462 19.0292 16.4807C20.2992 17.6314 21.9835 18.3324 23.8328 18.3324C27.7846 18.3324 30.9881 15.1291 30.9881 11.1771C30.9881 7.22549 27.7846 4.02148 23.8328 4.02148Z" fill="#FF9900"/>
<path fill-rule="evenodd" clip-rule="evenodd" d="M12.5545 11.9621C12.473 11.9528 12.437 11.9499 12.3811 11.9499C11.9407 11.9499 11.7181 12.101 11.7181 12.3994C11.7181 12.5831 11.8268 12.6999 11.9964 12.6999C12.3129 12.6999 12.541 12.3987 12.5545 11.9621ZM13.1196 13.2774C13.016 13.2774 12.4757 13.2774 12.4757 13.2774L12.4905 12.9715C12.2942 13.2131 12.0322 13.3284 11.6764 13.3284C11.2555 13.3284 10.9668 12.9998 10.9668 12.5223C10.9668 11.8034 11.4688 11.3842 12.3305 11.3842C12.4189 11.3842 12.5317 11.3924 12.6473 11.407C12.6712 11.3095 12.6776 11.2681 12.6776 11.2155C12.6776 11.0201 12.5423 10.9468 12.1795 10.9468C11.7994 10.943 11.4859 11.0376 11.3571 11.0799C11.3653 11.0309 11.4649 10.416 11.4649 10.416C11.8519 10.3023 12.1072 10.2598 12.3945 10.2598C13.0617 10.2598 13.4151 10.5592 13.4143 11.1253C13.4157 11.2771 13.3904 11.4638 13.3514 11.7101C13.284 12.1376 13.1393 13.0543 13.1196 13.2774Z" fill="#000066"/>
<path fill-rule="evenodd" clip-rule="evenodd" d="M10.6425 13.276H9.8655L10.3108 10.4861L9.31695 13.276H8.78762L8.72215 10.5017L8.25445 13.276H7.52734L8.1347 9.64648H9.25181L9.31932 11.6781L10.0009 9.64648H11.2433L10.6425 13.276Z" fill="#000066"/>
<path fill-rule="evenodd" clip-rule="evenodd" d="M24.7924 11.9621C24.7108 11.9528 24.6753 11.9499 24.6195 11.9499C24.1788 11.9499 23.9564 12.101 23.9564 12.3994C23.9564 12.5831 24.0646 12.6999 24.2347 12.6999C24.551 12.6999 24.7791 12.3987 24.7924 11.9621ZM25.3578 13.2774C25.254 13.2774 24.7141 13.2774 24.7141 13.2774L24.7287 12.9715C24.5324 13.2131 24.2705 13.3284 23.9149 13.3284C23.4934 13.3284 23.2051 12.9998 23.2051 12.5223C23.2051 11.8034 23.7073 11.3842 24.5688 11.3842C24.657 11.3842 24.7697 11.3924 24.8853 11.407C24.9094 11.3095 24.9156 11.2681 24.9156 11.2155C24.9156 11.0201 24.7804 10.9468 24.4175 10.9468C24.0375 10.943 23.7241 11.0376 23.5949 11.0799C23.6035 11.0309 23.7033 10.416 23.7033 10.416C24.09 10.3023 24.3456 10.2598 24.6325 10.2598C25.3001 10.2598 25.653 10.5592 25.6524 11.1253C25.6537 11.2771 25.6287 11.4638 25.5895 11.7101C25.5223 12.1376 25.3772 13.0543 25.3578 13.2774Z" fill="#000066"/>
<path fill-rule="evenodd" clip-rule="evenodd" d="M16.5727 13.2325C16.36 13.2995 16.1943 13.3284 16.0145 13.3284C15.6175 13.3284 15.4007 13.1002 15.4007 12.6799C15.3952 12.5494 15.4578 12.2062 15.5071 11.8932C15.5521 11.6174 15.8441 9.87891 15.8441 9.87891H16.6161L16.526 10.3257H16.9924L16.8872 11.0351H16.4191C16.3295 11.5964 16.2016 12.2956 16.2001 12.3884C16.2001 12.5406 16.2813 12.6071 16.4662 12.6071C16.5547 12.6071 16.6232 12.598 16.6756 12.5793L16.5727 13.2325Z" fill="#000066"/>
<path fill-rule="evenodd" clip-rule="evenodd" d="M18.9394 13.2087C18.6741 13.2897 18.4184 13.3293 18.1471 13.3284C17.2827 13.3273 16.832 12.8761 16.832 12.0116C16.832 11.0027 17.4052 10.2598 18.1836 10.2598C18.8201 10.2598 19.2268 10.6757 19.2268 11.3277C19.2268 11.5445 19.199 11.7557 19.1315 12.0538H17.5939C17.5419 12.482 17.8158 12.6603 18.2653 12.6603C18.5413 12.6603 18.7908 12.6033 19.068 12.4748L18.9394 13.2087ZM18.5053 11.4587C18.5098 11.3971 18.5871 10.9317 18.1458 10.9317C17.9001 10.9317 17.7241 11.1192 17.6527 11.4587H18.5053Z" fill="#000066"/>
<path fill-rule="evenodd" clip-rule="evenodd" d="M13.5861 11.2589C13.5861 11.632 13.767 11.8895 14.1775 12.083C14.492 12.231 14.541 12.2747 14.541 12.4087C14.541 12.5925 14.4021 12.6759 14.0949 12.6759C13.8629 12.6759 13.6474 12.6395 13.3987 12.5591C13.3987 12.5591 13.2969 13.21 13.292 13.2411C13.4685 13.2793 13.6259 13.315 14.1004 13.3284C14.92 13.3284 15.2986 13.0163 15.2986 12.3418C15.2986 11.9363 15.1403 11.6983 14.7511 11.5191C14.4255 11.3698 14.3878 11.3363 14.3878 11.1986C14.3878 11.039 14.5171 10.9575 14.768 10.9575C14.9206 10.9575 15.1287 10.9738 15.3263 11.0017L15.4368 10.3171C15.2357 10.2851 14.9306 10.2598 14.7531 10.2598C13.8842 10.2598 13.5833 10.7136 13.5861 11.2589Z" fill="#000066"/>
<path fill-rule="evenodd" clip-rule="evenodd" d="M22.7184 10.3365C22.9342 10.3365 23.1357 10.3926 23.4126 10.5325L23.5398 9.74474C23.4256 9.69996 23.0252 9.4375 22.686 9.4375C22.1662 9.4375 21.7264 9.69577 21.4175 10.1211C20.9666 9.9718 20.781 10.2735 20.5539 10.5743L20.3521 10.6213C20.3674 10.5224 20.3813 10.4241 20.3769 10.3245H19.6631C19.5659 11.2383 19.3932 12.1635 19.2581 13.0777L19.2227 13.2762H19.9999C20.1296 12.4333 20.2005 11.8938 20.2437 11.5283L20.5363 11.3662C20.5803 11.2032 20.7168 11.1485 20.9913 11.1552C20.9555 11.3476 20.936 11.5504 20.936 11.7602C20.936 12.726 21.4578 13.3272 22.2937 13.3272C22.5091 13.3272 22.6941 13.299 22.9805 13.2209L23.1167 12.3939C22.8591 12.5204 22.6482 12.58 22.457 12.58C22.0053 12.58 21.732 12.2465 21.732 11.6957C21.732 10.8963 22.1382 10.3365 22.7184 10.3365Z" fill="#000066"/>
<path fill-rule="evenodd" clip-rule="evenodd" d="M29.2944 9.64648L29.1217 10.6951C28.9097 10.4157 28.6815 10.2132 28.3802 10.2132C27.9883 10.2132 27.6315 10.5104 27.3979 10.948C27.0726 10.8805 26.7364 10.7657 26.7364 10.7657L26.7362 10.7686C26.762 10.524 26.773 10.3752 26.7704 10.3243H26.0568C25.9599 11.2381 25.787 12.1633 25.6519 13.0774L25.6162 13.276H26.3936C26.4986 12.5948 26.5787 12.0285 26.6379 11.58C26.9036 11.3399 27.0366 11.131 27.3045 11.1446C27.1856 11.432 27.1163 11.7629 27.1163 12.1024C27.1163 12.84 27.4893 13.327 28.0542 13.327C28.3389 13.327 28.5574 13.2287 28.7705 13.0012L28.7338 13.2758H29.4688L30.0606 9.64648H29.2944ZM28.3228 12.5941C28.0585 12.5941 27.9246 12.3981 27.9246 12.0122C27.9246 11.432 28.1748 11.0207 28.5271 11.0207C28.794 11.0207 28.9388 11.2238 28.9388 11.5988C28.9388 12.184 28.6844 12.5941 28.3228 12.5941Z" fill="#000066"/>
<path fill-rule="evenodd" clip-rule="evenodd" d="M10.865 13.0608H10.0883L10.5335 10.2709L9.53983 13.0608H9.01027L8.94491 10.2871L8.4771 13.0608H7.75L8.35735 9.43164H9.47447L9.50568 11.6783L10.2595 9.43164H11.4659L10.865 13.0608Z" fill="white"/>
<path fill-rule="evenodd" clip-rule="evenodd" d="M12.779 11.7457C12.6976 11.7362 12.6617 11.7336 12.6057 11.7336C12.1654 11.7336 11.9426 11.8845 11.9426 12.1827C11.9426 12.3662 12.0514 12.4837 12.2211 12.4837C12.5375 12.4837 12.7656 12.1824 12.779 11.7457ZM13.344 13.0606C13.2405 13.0606 12.7005 13.0606 12.7005 13.0606L12.7152 12.755C12.5189 12.9964 12.2568 13.1118 11.901 13.1118C11.48 13.1118 11.1914 12.7828 11.1914 12.3054C11.1914 11.5864 11.6935 11.1678 12.5553 11.1678C12.6434 11.1678 12.7562 11.1758 12.8719 11.1907C12.8959 11.093 12.9022 11.0515 12.9022 10.9987C12.9022 10.8034 12.7669 10.7307 12.4041 10.7307C12.0239 10.7262 11.7106 10.8208 11.5816 10.863C11.5899 10.8142 11.6894 10.1994 11.6894 10.1994C12.0765 10.0858 12.3318 10.043 12.6192 10.043C13.2862 10.043 13.6395 10.3427 13.6389 10.9086C13.6402 11.0602 13.6152 11.2478 13.576 11.4934C13.5085 11.9205 13.3638 12.8378 13.344 13.0606Z" fill="white"/>
<path fill-rule="evenodd" clip-rule="evenodd" d="M23.7626 9.5303L23.6354 10.3179C23.358 10.1785 23.1571 10.122 22.9415 10.122C22.3616 10.122 21.9547 10.6826 21.9547 11.4821C21.9547 12.0329 22.2281 12.3657 22.6798 12.3657C22.8711 12.3657 23.0824 12.3065 23.3395 12.1795L23.203 13.0066C22.917 13.0845 22.7319 13.113 22.5166 13.113C21.6801 13.113 21.1592 12.5117 21.1592 11.5461C21.1592 10.2486 21.8794 9.3418 22.9089 9.3418C23.2481 9.3418 23.6487 9.48552 23.7626 9.5303Z" fill="white"/>
<path fill-rule="evenodd" clip-rule="evenodd" d="M25.0158 11.7457C24.9348 11.7362 24.8988 11.7336 24.8429 11.7336C24.4028 11.7336 24.1799 11.8845 24.1799 12.1827C24.1799 12.3662 24.2886 12.4837 24.4582 12.4837C24.7745 12.4837 25.0028 12.1824 25.0158 11.7457ZM25.5812 13.0606C25.4778 13.0606 24.9376 13.0606 24.9376 13.0606L24.9522 12.755C24.7559 12.9964 24.4939 13.1118 24.1384 13.1118C23.717 13.1118 23.4287 12.7828 23.4287 12.3054C23.4287 11.5864 23.9303 11.1678 24.7923 11.1678C24.8804 11.1678 24.9931 11.1758 25.1086 11.1907C25.1327 11.093 25.139 11.0515 25.139 10.9987C25.139 10.8034 25.0041 10.7307 24.641 10.7307C24.2612 10.7262 23.948 10.8208 23.8188 10.863C23.827 10.8142 23.9266 10.1994 23.9266 10.1994C24.3137 10.0858 24.5688 10.043 24.8561 10.043C25.5232 10.043 25.8768 10.3427 25.8759 10.9086C25.8775 11.0602 25.8522 11.2478 25.8131 11.4934C25.7458 11.9205 25.6011 12.8378 25.5812 13.0606Z" fill="white"/>
<path fill-rule="evenodd" clip-rule="evenodd" d="M16.7953 13.0155C16.5829 13.0824 16.417 13.1115 16.2374 13.1115C15.8403 13.1115 15.6234 12.8832 15.6234 12.4633C15.6179 12.3324 15.6807 11.9897 15.7301 11.6764C15.7748 11.4004 16.0669 9.66211 16.0669 9.66211H16.8391L16.7487 10.1088H17.1452L17.0396 10.818H16.6419C16.5522 11.3798 16.4243 12.0786 16.4227 12.1714C16.4227 12.324 16.5043 12.39 16.6889 12.39C16.7775 12.39 16.8459 12.3813 16.8985 12.3621L16.7953 13.0155Z" fill="white"/>
<path fill-rule="evenodd" clip-rule="evenodd" d="M19.1641 12.9924C18.8987 13.0737 18.6425 13.1121 18.3715 13.1118C17.5069 13.1113 17.0566 12.6595 17.0566 11.7951C17.0566 10.7859 17.6297 10.043 18.4075 10.043C19.0447 10.043 19.4512 10.4589 19.4512 11.1117C19.4512 11.328 19.4229 11.5391 19.3562 11.8373H17.8183C17.7662 12.2656 18.0404 12.4442 18.4895 12.4442C18.7657 12.4442 19.0151 12.387 19.2926 12.2581L19.1641 12.9924ZM18.7298 11.242C18.734 11.1803 18.8117 10.7152 18.3704 10.7152C18.1246 10.7152 17.9485 10.903 17.8769 11.242H18.7298Z" fill="white"/>
<path fill-rule="evenodd" clip-rule="evenodd" d="M13.8095 11.0421C13.8095 11.4159 13.9907 11.6728 14.4013 11.8665C14.7157 12.0144 14.7645 12.0582 14.7645 12.1923C14.7645 12.3763 14.6257 12.4593 14.3183 12.4593C14.0866 12.4593 13.8709 12.4233 13.6221 12.3431C13.6221 12.3431 13.5204 12.9936 13.5156 13.0242C13.692 13.0629 13.8495 13.0982 14.3238 13.1118C15.1436 13.1118 15.5222 12.7999 15.5222 12.1253C15.5222 11.7196 15.3637 11.4817 14.9746 11.303C14.6489 11.1532 14.6115 11.1201 14.6115 10.9821C14.6115 10.8225 14.7406 10.7404 14.9918 10.7404C15.144 10.7404 15.3524 10.7574 15.5498 10.7852L15.6604 10.1008C15.4592 10.069 15.1544 10.043 14.9767 10.043C14.1076 10.043 13.8069 10.4969 13.8095 11.0421Z" fill="white"/>
<path fill-rule="evenodd" clip-rule="evenodd" d="M29.6925 13.0608H28.9577L28.9941 12.7862C28.7809 13.0138 28.5626 13.1121 28.2778 13.1121C27.7133 13.1121 27.3398 12.6256 27.3398 11.8872C27.3398 10.9054 27.9189 10.0779 28.6039 10.0779C28.9051 10.0779 29.1332 10.2009 29.3457 10.4805L29.518 9.43164H30.2841L29.6925 13.0608ZM28.5465 12.3788C28.9085 12.3788 29.1625 11.9689 29.1625 11.3843C29.1625 11.0092 29.0178 10.8055 28.7508 10.8055C28.3985 10.8055 28.1484 11.2168 28.1484 11.7973C28.1484 12.1836 28.2824 12.3788 28.5465 12.3788Z" fill="white"/>
<path fill-rule="evenodd" clip-rule="evenodd" d="M26.2813 10.1098C26.1841 11.0234 26.0113 11.9486 25.8762 12.8629L25.8408 13.0613H26.6178C26.8957 11.2563 26.9626 10.9041 27.3986 10.9481C27.4679 10.5786 27.5972 10.2551 27.6934 10.0921C27.3681 10.0242 27.1864 10.2081 26.9482 10.5575C26.9672 10.4063 27.0015 10.2596 26.995 10.1098H26.2813Z" fill="white"/>
<path fill-rule="evenodd" clip-rule="evenodd" d="M19.8861 10.1098C19.7885 11.0234 19.6155 11.9486 19.4806 12.8629L19.4453 13.0613H20.2225C20.5006 11.2563 20.5672 10.9041 21.0025 10.9481C21.0723 10.5786 21.2018 10.2551 21.2978 10.0921C20.9728 10.0242 20.7907 10.2081 20.553 10.5575C20.5718 10.4063 20.6063 10.2596 20.5995 10.1098H19.8861Z" fill="white"/>
</svg>
