<svg width="37" height="22" viewBox="0 0 37 22" fill="none" xmlns="http://www.w3.org/2000/svg">
<rect width="36.6667" height="22" rx="4" transform="matrix(1 0 0 -1 0.0996094 22)" fill="#00457C"/>
<path fill-rule="evenodd" clip-rule="evenodd" d="M28.8556 8.06483L28.1161 12.7698C28.1017 12.8609 28.1721 12.9434 28.2644 12.9434H29.0082C29.1314 12.9434 29.2364 12.8537 29.2554 12.7319L29.9847 8.11153C29.9991 8.02046 29.9287 7.93798 29.8362 7.93798H29.0041C28.93 7.93798 28.867 7.99165 28.8556 8.06483Z" fill="white"/>
<path fill-rule="evenodd" clip-rule="evenodd" d="M19.5828 9.60326H18.7156C18.6327 9.60326 18.5551 9.64438 18.5086 9.71315L17.3121 11.4751L16.8052 9.78192C16.7734 9.67598 16.6758 9.60326 16.5652 9.60326H15.7128C15.6099 9.60326 15.5374 9.70455 15.5707 9.8019L16.5255 12.6051L15.6273 13.8724C15.5569 13.9718 15.628 14.1094 15.75 14.1094H16.6163C16.6983 14.1094 16.7752 14.0692 16.8222 14.0018L19.7062 9.83907C19.7752 9.7394 19.7041 9.60326 19.5828 9.60326Z" fill="white"/>
<path fill-rule="evenodd" clip-rule="evenodd" d="M26.6359 11.2844C26.5525 11.7774 26.1613 12.1084 25.662 12.1084C25.4118 12.1084 25.2113 12.0278 25.0826 11.8754C24.9548 11.7244 24.907 11.509 24.9474 11.2695C25.025 10.7807 25.4227 10.4392 25.9143 10.4392C26.1594 10.4392 26.3583 10.5205 26.4896 10.6743C26.6218 10.8293 26.6738 11.0458 26.6359 11.2844ZM27.8384 9.60482H26.9755C26.9016 9.60482 26.8387 9.65849 26.8271 9.73167L26.7892 9.97282L26.7288 9.88547C26.542 9.61435 26.1255 9.52351 25.7096 9.52351C24.7564 9.52351 23.9421 10.246 23.7836 11.2592C23.7012 11.7647 23.8183 12.2477 24.1049 12.5848C24.3682 12.8945 24.7438 13.0234 25.1915 13.0234C25.96 13.0234 26.3861 12.53 26.3861 12.53L26.3476 12.7697C26.3331 12.8608 26.4035 12.9433 26.496 12.9433H27.2729C27.3963 12.9433 27.501 12.8538 27.5203 12.7321L27.9868 9.77837C28.0012 9.6873 27.9306 9.60482 27.8384 9.60482Z" fill="white"/>
<path fill-rule="evenodd" clip-rule="evenodd" d="M13.7843 11.2844C13.7009 11.7774 13.3097 12.1084 12.8104 12.1084C12.5602 12.1084 12.3597 12.0278 12.231 11.8754C12.1035 11.7244 12.0554 11.509 12.0958 11.2695C12.1734 10.7807 12.5711 10.4392 13.0627 10.4392C13.3078 10.4392 13.5067 10.5205 13.638 10.6743C13.7701 10.8293 13.8222 11.0458 13.7843 11.2844ZM14.9868 9.60482H14.124C14.0501 9.60482 13.9871 9.65849 13.9755 9.73167L13.9376 9.97282L13.8775 9.88547C13.6904 9.61435 13.2739 9.52351 12.858 9.52351C11.9048 9.52351 11.0905 10.246 10.9321 11.2592C10.8496 11.7647 10.9667 12.2477 11.2534 12.5848C11.5166 12.8945 11.8923 13.0234 12.34 13.0234C13.1085 13.0234 13.5346 12.53 13.5346 12.53L13.496 12.7697C13.4816 12.8608 13.552 12.9433 13.6444 12.9433H14.4213C14.5447 12.9433 14.6495 12.8538 14.6687 12.7321L15.1353 9.77837C15.1497 9.6873 15.079 9.60482 14.9868 9.60482Z" fill="white"/>
<path fill-rule="evenodd" clip-rule="evenodd" d="M9.80901 9.62536C9.7105 10.2721 9.21658 10.2721 8.7387 10.2721H8.46688L8.65762 9.06454C8.669 8.99159 8.73196 8.93792 8.80584 8.93792H8.9306C9.25585 8.93792 9.56298 8.93792 9.72142 9.12308C9.81621 9.2339 9.84478 9.39838 9.80901 9.62536ZM9.60104 7.93798H7.79915C7.67579 7.93798 7.57101 8.02766 7.55173 8.1494L6.82316 12.7698C6.80876 12.8609 6.87915 12.9434 6.97139 12.9434H7.83191C7.95504 12.9434 8.05981 12.8537 8.0791 12.7322L8.27587 11.4855C8.29492 11.3638 8.39993 11.2741 8.52306 11.2741H9.09318C10.2801 11.2741 10.9652 10.6998 11.1441 9.56122C11.2247 9.06358 11.1474 8.67235 10.9144 8.39845C10.6581 8.09736 10.2039 7.93798 9.60104 7.93798Z" fill="white"/>
<path fill-rule="evenodd" clip-rule="evenodd" d="M22.6614 9.62536C22.5629 10.2721 22.0689 10.2721 21.5911 10.2721H21.3192L21.51 9.06454C21.5214 8.99159 21.5843 8.93792 21.6582 8.93792H21.783C22.1082 8.93792 22.4153 8.93792 22.5738 9.12308C22.6686 9.2339 22.6971 9.39838 22.6614 9.62536ZM22.4536 7.93798H20.6517C20.5283 7.93798 20.4235 8.02766 20.4043 8.1494L19.6757 12.7698C19.6613 12.8609 19.7319 12.9434 19.8239 12.9434H20.7486C20.8348 12.9434 20.9082 12.8806 20.9216 12.7956L21.1284 11.4855C21.1475 11.3638 21.2525 11.2741 21.3756 11.2741H21.9457C23.1326 11.2741 23.8178 10.6998 23.9967 9.56122C24.0773 9.06358 23.9999 8.67235 23.7669 8.39845C23.5106 8.09736 23.0564 7.93798 22.4536 7.93798Z" fill="white"/>
</svg>
