<svg width="37" height="22" viewBox="0 0 37 22" fill="none" xmlns="http://www.w3.org/2000/svg">
<rect width="36.6667" height="22" rx="4" fill="#26337A"/>
<path fill-rule="evenodd" clip-rule="evenodd" d="M15.2129 14.4997L16.3403 7.50586H18.1424L17.0151 14.4997H15.2129Z" fill="#FFFFFE"/>
<path fill-rule="evenodd" clip-rule="evenodd" d="M23.552 7.6782C23.1957 7.53784 22.6353 7.38477 21.9372 7.38477C20.1555 7.38477 18.9013 8.33386 18.8909 9.69291C18.8795 10.6982 19.7859 11.2588 20.4691 11.593C21.1713 11.9355 21.4073 12.1546 21.4045 12.4609C21.3997 12.9293 20.844 13.1439 20.3258 13.1439C19.6043 13.1439 19.221 13.0382 18.6284 12.7771L18.3965 12.6658L18.1445 14.2313C18.5648 14.4261 19.3438 14.5952 20.1523 14.6041C22.0458 14.6041 23.2762 13.6664 23.2906 12.2152C23.2971 11.418 22.8169 10.8138 21.7769 10.3149C21.1471 9.99058 20.7606 9.77574 20.765 9.4475C20.7655 9.15685 21.0916 8.84565 21.7974 8.84565C22.3869 8.83615 22.8136 8.97228 23.1461 9.1144L23.3079 9.19434L23.552 7.6782Z" fill="#FFFFFE"/>
<path fill-rule="evenodd" clip-rule="evenodd" d="M25.9512 12.0207C26.1006 11.6188 26.6691 10.0658 26.6691 10.0658C26.6586 10.0843 26.8176 9.66075 26.9087 9.39861L27.0303 10.0018C27.0303 10.0018 27.3761 11.6711 27.4473 12.0207C27.1667 12.0207 26.3031 12.0207 25.9512 12.0207ZM28.1747 7.51367H26.782C26.35 7.51367 26.0266 7.63741 25.8374 8.09342L23.1611 14.5029H25.054C25.054 14.5029 25.3628 13.6406 25.4328 13.4514C25.6393 13.4514 27.4785 13.455 27.741 13.455C27.7951 13.6991 27.9605 14.5029 27.9605 14.5029H29.6331L28.1747 7.51367Z" fill="#FFFFFE"/>
<path fill-rule="evenodd" clip-rule="evenodd" d="M13.7012 7.51172L11.9373 12.2798L11.7484 11.3106C11.4197 10.1939 10.3965 8.98345 9.25195 8.37695L10.8657 14.4936L12.7729 14.4924L15.6109 7.51172H13.7012Z" fill="#FFFFFE"/>
<path fill-rule="evenodd" clip-rule="evenodd" d="M10.3002 7.50781H7.39403L7.37012 7.65272C9.63142 8.23206 11.1276 9.63045 11.7486 11.3114L11.1171 8.09789C11.0082 7.65469 10.6915 7.52331 10.3002 7.50781Z" fill="#EC982D"/>
</svg>
